<svg width="254" height="212" viewBox="0 0 254 212" fill="none" xmlns="http://www.w3.org/2000/svg">
<path d="M228.036 106C228.036 164.542 180.578 212 122.036 212C63.4935 212 16.5196 164.523 18.0357 106C20.5357 9.5 124.536 156.5 122.036 0C180.578 0 228.036 47.4578 228.036 106Z" fill="#FFB404"/>
<circle cx="123.5" cy="105.5" r="101.5" fill="#191C20" stroke="white" stroke-width="2"/>
<circle cx="123.5" cy="105.5" r="101.5" fill="#191C20" stroke="white" stroke-width="2"/>
<path d="M88.8706 118L97.8946 94.384H88.2466V98.704H83.6866V90.544H103.991V94.144L94.9186 118H88.8706ZM119.418 118.528C115.738 118.528 112.922 117.28 110.97 114.784C109.05 112.256 108.09 108.72 108.09 104.176C108.09 99.76 109.05 96.304 110.97 93.808C112.922 91.312 115.738 90.064 119.418 90.064C123.098 90.064 125.898 91.312 127.818 93.808C129.738 96.272 130.698 99.728 130.698 104.176C130.698 108.72 129.738 112.256 127.818 114.784C125.898 117.28 123.098 118.528 119.418 118.528ZM119.418 114.112C121.178 114.112 122.49 113.28 123.354 111.616C124.25 109.952 124.698 107.472 124.698 104.176C124.698 100.944 124.25 98.512 123.354 96.88C122.49 95.248 121.178 94.432 119.418 94.432C117.658 94.432 116.33 95.248 115.434 96.88C114.57 98.512 114.138 100.944 114.138 104.176C114.138 107.472 114.57 109.952 115.434 111.616C116.33 113.28 117.658 114.112 119.418 114.112ZM142.339 104.032C140.963 104.032 139.731 103.744 138.643 103.168C137.587 102.56 136.755 101.728 136.147 100.672C135.539 99.584 135.235 98.352 135.235 96.976C135.235 95.568 135.539 94.352 136.147 93.328C136.755 92.304 137.587 91.504 138.643 90.928C139.731 90.32 140.963 90.016 142.339 90.016C144.451 90.016 146.179 90.656 147.523 91.936C148.867 93.216 149.539 94.896 149.539 96.976C149.539 98.352 149.235 99.584 148.627 100.672C148.019 101.728 147.171 102.56 146.083 103.168C144.995 103.744 143.747 104.032 142.339 104.032ZM142.339 101.104C143.363 101.072 144.163 100.688 144.739 99.952C145.347 99.216 145.651 98.224 145.651 96.976C145.651 95.76 145.347 94.768 144.739 94C144.163 93.232 143.363 92.864 142.339 92.896C141.379 92.928 140.595 93.312 139.987 94.048C139.379 94.784 139.075 95.76 139.075 96.976C139.075 98.224 139.379 99.232 139.987 100C140.595 100.736 141.379 101.104 142.339 101.104ZM161.779 118.528C160.403 118.528 159.171 118.224 158.083 117.616C157.027 117.008 156.195 116.176 155.587 115.12C154.979 114.064 154.675 112.832 154.675 111.424C154.675 109.376 155.331 107.712 156.643 106.432C157.987 105.152 159.699 104.512 161.779 104.512C163.891 104.512 165.603 105.152 166.915 106.432C168.259 107.712 168.931 109.376 168.931 111.424C168.931 112.832 168.627 114.064 168.019 115.12C167.411 116.176 166.563 117.008 165.475 117.616C164.419 118.224 163.187 118.528 161.779 118.528ZM161.779 115.6C162.803 115.568 163.603 115.184 164.179 114.448C164.787 113.68 165.091 112.672 165.091 111.424C165.091 110.208 164.787 109.232 164.179 108.496C163.603 107.728 162.803 107.36 161.779 107.392C160.819 107.392 160.035 107.76 159.427 108.496C158.819 109.232 158.515 110.208 158.515 111.424C158.515 112.672 158.819 113.68 159.427 114.448C160.035 115.216 160.819 115.6 161.779 115.6ZM141.523 118.048L159.619 90.4H162.643L144.691 118.048H141.523Z" fill="white"/>
</svg>
